<svg width="36" height="36" viewBox="0 0 36 36" fill="none" xmlns="http://www.w3.org/2000/svg">
<mask id="mask0_9_57" style="mask-type:luminance" maskUnits="userSpaceOnUse" x="0" y="0" width="36" height="36">
<path d="M35.5 0H0V35.5551H35.5V0Z" fill="white"/>
</mask>
<g mask="url(#mask0_9_57)">
<path d="M20.0299 1.6698C20.0654 1.67502 20.1009 1.68025 20.1374 1.68566C20.3183 1.71318 20.4972 1.74619 20.6761 1.78448C20.7452 1.79924 20.8144 1.81351 20.8836 1.8275C23.4475 2.34577 25.8883 3.4968 27.9009 5.17075C27.9524 5.21318 28.0044 5.25483 28.0564 5.29635C28.4794 5.6335 28.8612 6.01824 29.2437 6.39992C29.2734 6.42952 29.303 6.4591 29.3337 6.48961C29.5011 6.65778 29.6617 6.82943 29.8153 7.01046C29.8385 7.03746 29.8385 7.03746 29.8621 7.06502C30.621 7.94607 31.2823 8.89633 31.8397 9.91748C31.8574 9.94983 31.8752 9.98236 31.8935 10.0158C32.2999 10.7646 32.6448 11.5443 32.9196 12.3512C32.9311 12.385 32.9428 12.419 32.9549 12.454C33.1636 13.0648 33.3252 13.6803 33.4594 14.3116C33.4663 14.3435 33.4732 14.3754 33.4803 14.4083C33.5976 14.9562 33.6658 15.513 33.7293 16.0694C33.7324 16.0934 33.7354 16.1176 33.7384 16.1425C33.7666 16.3908 33.7691 16.6381 33.77 16.8879C33.7702 16.9344 33.7703 16.9808 33.7707 17.0272C33.7712 17.1755 33.7714 17.3238 33.7716 17.472C33.7716 17.4973 33.7716 17.5224 33.7716 17.5483C33.7723 18.4415 33.7563 19.32 33.5852 20.1998C33.5643 20.309 33.5458 20.4181 33.5288 20.528C33.4892 20.7701 33.4349 21.0087 33.3802 21.2478C33.3624 21.3253 33.345 21.403 33.3277 21.4807C33.2629 21.7676 33.1864 22.045 33.0882 22.3226C33.0653 22.395 33.0428 22.4675 33.0208 22.5402C33.0096 22.5767 32.9984 22.613 32.987 22.6505C32.9641 22.7258 32.9418 22.8012 32.9196 22.8768C32.8631 23.0666 32.8033 23.2487 32.7188 23.4279C32.6839 23.5045 32.6528 23.5816 32.6223 23.66C32.1925 24.7431 31.624 25.7398 30.9962 26.7169C30.8776 26.6661 30.8013 26.5976 30.7104 26.5064C30.6804 26.4764 30.6504 26.4465 30.6195 26.4156C30.5867 26.3823 30.5537 26.3491 30.5207 26.3158C30.4857 26.2808 30.4509 26.2458 30.4159 26.2108C30.3212 26.116 30.2265 26.0209 30.1321 25.9258C30.0332 25.8262 29.9342 25.727 29.8353 25.6278C29.6479 25.4399 29.4606 25.2518 29.2735 25.0636C29.0604 24.8494 28.8472 24.6353 28.6338 24.4215C28.1951 23.9811 27.7566 23.5408 27.3182 23.1001C27.362 22.9886 27.4089 22.8819 27.4641 22.7756C27.676 22.3623 27.8635 21.9463 28.0268 21.5115C28.0351 21.4896 28.0433 21.4677 28.0518 21.4451C28.0685 21.4012 28.0848 21.3571 28.1012 21.3132C28.1205 21.2613 28.1402 21.2098 28.1601 21.1582C28.2554 20.9065 28.3223 20.6512 28.3853 20.3895C28.3955 20.3484 28.4056 20.3072 28.4159 20.2647C28.4354 20.1851 28.4547 20.1054 28.4739 20.0258C28.4933 19.947 28.514 19.8693 28.5357 19.7913C28.5845 19.5963 28.6035 19.395 28.6276 19.1958C28.6361 19.125 28.645 19.0542 28.6541 18.9835C28.8451 17.4495 28.7849 15.7332 28.2208 14.2769C28.1851 14.1825 28.1544 14.0867 28.1233 13.9908C28.0355 13.7201 27.9418 13.4556 27.8244 13.1962C27.8131 13.1711 27.8017 13.1461 27.7902 13.1203C27.2461 11.9233 26.5092 10.8014 25.5636 9.88352C25.4809 9.80139 25.3989 9.71872 25.3176 9.63481C25.1186 9.43073 24.9095 9.24922 24.6864 9.07233C24.6522 9.04424 24.6179 9.01633 24.5828 8.98735C23.6246 8.20635 22.5312 7.62979 21.3723 7.21337C21.3089 7.19051 21.2456 7.16727 21.1826 7.14372C20.9914 7.07259 20.8009 7.01033 20.6035 6.95975C20.5762 6.95271 20.5489 6.94566 20.5207 6.93839C20.0982 6.83097 19.6752 6.74303 19.2432 6.68301C19.2143 6.67898 19.1853 6.67494 19.1555 6.67078C18.651 6.60458 18.1484 6.59674 17.6405 6.5964C17.6052 6.59636 17.57 6.59633 17.5337 6.59629C17.009 6.59663 16.4984 6.61277 15.9807 6.70625C15.9523 6.71114 15.9239 6.71603 15.8946 6.72106C13.8479 7.07805 11.8894 7.97942 10.3606 9.40175C10.2902 9.46699 10.2185 9.52975 10.1454 9.59215C9.86585 9.8357 9.60362 10.105 9.36719 10.3907C9.35203 10.4087 9.33687 10.4268 9.32125 10.4455C8.71418 11.1719 8.17717 11.9644 7.77847 12.8259C7.74604 12.8952 7.71216 12.9637 7.6782 13.0323C7.49814 13.4051 7.36197 13.7907 7.23085 14.1828C7.22226 14.2083 7.21366 14.2337 7.20481 14.26C7.05988 14.6922 6.91447 15.1393 6.87721 15.5958C6.86942 15.6715 6.85463 15.7435 6.83859 15.8178C6.78869 16.0571 6.76221 16.3 6.73527 16.5426C6.73241 16.5677 6.72957 16.5929 6.72662 16.6189C6.70591 16.8125 6.69531 17.004 6.69348 17.1984C6.69314 17.228 6.69281 17.2573 6.69247 17.2877C6.66968 19.8526 7.3877 22.3525 8.99601 24.3845C9.02312 24.4188 9.05021 24.4533 9.07813 24.4887C9.22377 24.6696 9.37583 24.8439 9.53221 25.0158C9.59517 25.0853 9.65639 25.156 9.71727 25.2275C9.95091 25.4958 10.2079 25.7452 10.4807 25.9733C10.5083 25.9964 10.5359 26.0195 10.5644 26.0433C10.6596 26.1222 10.7555 26.1999 10.8519 26.2774C10.884 26.3036 10.9162 26.3297 10.9494 26.3565C11.8208 27.047 12.8315 27.6296 13.8884 27.9773C13.9612 28.0031 14.0313 28.0333 14.1023 28.0637C14.3394 28.1599 14.5865 28.2211 14.8335 28.2856C14.9168 28.3075 15 28.3297 15.0831 28.3521C15.447 28.4486 15.8106 28.5222 16.1832 28.5759C16.2057 28.5793 16.2283 28.5826 16.2515 28.586C16.7571 28.6578 17.2559 28.6596 17.7691 28.6774C17.7691 25.041 17.7691 21.4046 17.7691 17.658C18.0348 17.8861 18.0348 17.8861 18.1359 17.9874C18.159 18.0105 18.1823 18.0336 18.2061 18.0575C18.2432 18.0948 18.2432 18.0948 18.281 18.1327C18.3079 18.1597 18.3349 18.1865 18.3626 18.2143C18.453 18.3047 18.543 18.3951 18.6331 18.4855C18.6984 18.551 18.7639 18.6164 18.8293 18.6818C18.9713 18.824 19.1133 18.9662 19.2553 19.1085C19.4665 19.3202 19.6777 19.5317 19.8889 19.7431C20.2661 20.1209 20.6433 20.4987 21.0203 20.8766C21.3503 21.2071 21.6801 21.5376 22.0101 21.8681C22.0429 21.901 22.0429 21.901 22.0763 21.9344C22.1652 22.0234 22.2539 22.1123 22.3427 22.2012C23.1757 23.0355 24.0085 23.87 24.8414 24.7045C25.5817 25.4463 26.3223 26.1882 27.063 26.9299C27.8947 27.7629 28.7263 28.596 29.5579 29.4292C29.6465 29.5179 29.7351 29.6066 29.8236 29.6953C29.8455 29.7172 29.8673 29.7391 29.8898 29.7617C30.2196 30.0921 30.5496 30.4226 30.8796 30.7529C31.2545 31.1284 31.6292 31.5039 32.0039 31.8795C32.2138 32.0898 32.4238 32.3001 32.6338 32.5104C32.7739 32.6507 32.9139 32.7909 33.0538 32.9312C33.1336 33.0114 33.2135 33.0914 33.2936 33.1714C33.3795 33.2573 33.4652 33.3433 33.5509 33.4293C33.5762 33.4546 33.6014 33.4798 33.6275 33.5058C33.65 33.5285 33.6725 33.5513 33.6958 33.5746C33.7253 33.6041 33.7253 33.6041 33.7554 33.6343C33.7968 33.68 33.7968 33.68 33.7968 33.7138C32.6988 33.8332 31.6 33.912 30.4963 33.9568C30.4559 33.9584 30.4154 33.9602 30.3737 33.962C28.4137 34.0412 26.6725 34.045 25.1651 32.6569C24.8692 32.3785 24.5975 32.0797 24.3319 31.7723C24.3019 31.7376 24.3019 31.7376 24.2711 31.7021C23.7714 31.1243 23.3074 30.5247 22.8796 29.8914C22.8351 29.8226 22.8349 29.8226 22.763 29.7928C22.763 30.8191 22.763 31.8452 22.763 32.9026C22.386 33.0285 22.0184 33.1481 21.6346 33.2448C21.5892 33.2564 21.5438 33.2681 21.4982 33.2797C20.8332 33.4482 20.1706 33.5634 19.4899 33.6462C19.4489 33.6517 19.4079 33.6572 19.3655 33.6629C17.7884 33.8596 16.1119 33.7529 14.5589 33.4297C14.4675 33.4107 14.3759 33.3925 14.2842 33.3748C13.9606 33.3108 13.6458 33.2292 13.3309 33.131C13.2375 33.1022 13.1437 33.0749 13.0499 33.0475C11.3681 32.5517 9.72763 31.7588 8.32116 30.7055C8.27604 30.672 8.23092 30.6388 8.1858 30.6054C7.8174 30.332 7.46296 30.0481 7.12541 29.7368C7.05052 29.6681 6.97461 29.6013 6.89764 29.535C6.78159 29.4342 6.67406 29.3266 6.56641 29.217C6.50192 29.1535 6.43527 29.0948 6.36619 29.0365C6.23642 28.9243 6.12427 28.8013 6.01124 28.6724C5.94896 28.6024 5.88612 28.5338 5.82171 28.4657C5.60395 28.2356 5.40004 28.0004 5.20761 27.7487C5.14712 27.6696 5.08524 27.5921 5.0215 27.5156C4.22247 26.5523 3.54843 25.4022 3.05732 24.2494C3.04315 24.2161 3.02897 24.1831 3.01438 24.1489C2.9666 24.0368 2.91914 23.9244 2.87173 23.812C2.85577 23.7744 2.83981 23.7367 2.82336 23.6977C2.5395 23.0254 2.32217 22.355 2.14626 21.6466C2.13773 21.6128 2.12921 21.579 2.12042 21.5442C1.80433 20.2903 1.63238 19.0358 1.6338 17.7424C1.63381 17.711 1.63382 17.6793 1.63382 17.647C1.63488 16.8536 1.66322 16.0625 1.79419 15.2785C1.81027 15.1818 1.82545 15.0851 1.84061 14.9883C1.9724 14.158 2.17468 13.3592 2.44152 12.5624C2.4503 12.5361 2.45909 12.5098 2.46814 12.4826C2.61357 12.0479 2.77169 11.6216 2.95609 11.2019C2.96901 11.1719 2.98195 11.1418 2.99528 11.1111C3.20312 10.6302 3.43948 10.1696 3.69841 9.71463C3.71613 9.68334 3.73384 9.65223 3.75211 9.62006C4.00615 9.17473 4.27813 8.74599 4.57573 8.32873C4.60505 8.28759 4.60505 8.28759 4.63496 8.24562C4.85715 7.93551 5.08496 7.63313 5.33507 7.34505C5.41363 7.25365 5.48824 7.16012 5.5627 7.06539C5.71185 6.88112 5.87742 6.71576 6.0468 6.55039C6.16702 6.43267 6.27889 6.31185 6.38703 6.18293C6.44092 6.12085 6.49907 6.06778 6.56233 6.01543C6.65644 5.9354 6.74428 5.85285 6.83016 5.76402C6.96199 5.62989 7.10457 5.51297 7.25101 5.39524C7.33317 5.3281 7.41193 5.25883 7.49024 5.18728C8.24975 4.50576 9.15064 3.94966 10.042 3.46128C10.0744 3.4435 10.1068 3.42572 10.1402 3.40741C10.8054 3.04518 11.4994 2.70319 12.2261 2.48314C12.3185 2.45308 12.4064 2.41941 12.4963 2.38254C13.4085 2.01237 14.4041 1.82023 15.3734 1.6698C15.4085 1.66429 15.4085 1.66429 15.4444 1.65865C16.9377 1.42802 18.5374 1.44313 20.0299 1.6698Z" fill="#F84565"/>
<path d="M23.3173 20.0899C23.3296 20.1143 23.3418 20.1388 23.3544 20.1639C23.3239 20.1945 23.2934 20.225 23.262 20.2565C23.2802 20.2016 23.2985 20.1465 23.3173 20.0899Z" fill="#F84565"/>
<path d="M10.245 13.1307C10.2635 13.1864 10.2635 13.1864 10.2404 13.2338C10.2081 13.279 10.2081 13.279 10.1526 13.316C10.1773 13.2495 10.2073 13.1908 10.245 13.1307Z" fill="#F84565"/>
</g>
</svg>
